<?xml version="1.0" encoding="UTF-8"?>
<svg width="32px" height="36px" viewBox="0 0 32 36" version="1.1" xmlns="http://www.w3.org/2000/svg" xmlns:xlink="http://www.w3.org/1999/xlink">
    <!-- Generator: Sketch 60.1 (88133) - https://sketch.com -->
    <title>package</title>
    <desc>Created with Sketch.</desc>
    <g id="Page-1" stroke="none" stroke-width="1" fill="none" fill-rule="evenodd" stroke-linecap="round" stroke-linejoin="round">
        <g id="Desktop-Copy" transform="translate(-234.000000, -493.000000)" stroke="#001738" stroke-width="2">
            <g id="membership" transform="translate(0.000000, 451.000000)">
                <g id="Group" transform="translate(137.000000, 43.000000)">
                    <g id="package" transform="translate(98.000000, 0.000000)">
                        <line x1="22.5" y1="12.3333333" x2="7.5" y2="3.68333333" id="Path"></line>
                        <path d="M30,23.3333333 L30,10 C29.9987798,8.81033602 29.3636135,7.71149834 28.3333333,7.11666667 L16.6666667,0.45 C15.6353297,-0.14544265 14.3646703,-0.14544265 13.3333333,0.45 L1.66666667,7.11666667 C0.636386534,7.71149834 0.0012202479,8.81033602 0,10 L0,23.3333333 C0.0012202479,24.5229973 0.636386534,25.621835 1.66666667,26.2166667 C3.7064107,27.3822347 5.23621873,28.2564107 6.25609075,28.8391947 C7.82881132,29.7378922 10.1878922,31.0859384 13.3333333,32.8833333 C14.3646703,33.478776 15.6353297,33.478776 16.6666667,32.8833333 L28.3333333,26.2166667 C29.3636135,25.621835 29.9987798,24.5229973 30,23.3333333 Z" id="Path"></path>
                        <polyline id="Path" points="0.45 8.26666667 15 16.6833333 29.55 8.26666667"></polyline>
                        <line x1="15" y1="33.4666667" x2="15" y2="16.6666667" id="Path"></line>
                    </g>
                </g>
            </g>
        </g>
    </g>
</svg>